<svg width="57" height="57" viewBox="0 0 57 57" fill="none" xmlns="http://www.w3.org/2000/svg">
<rect x="51.4829" y="34.1562" width="24.5" height="40.5" rx="0.25" transform="rotate(135 51.4829 34.1562)" fill="#94E499" stroke="black" stroke-width="0.5"/>
<rect x="14.3597" y="33.4492" width="6" height="9" rx="1" transform="rotate(135 14.3597 33.4492)" fill="#333333"/>
<rect x="30.6232" y="49.7129" width="6" height="9" rx="1" transform="rotate(135 30.6232 49.7129)" fill="#333333"/>
<rect x="53.9578" y="26.3789" width="6" height="9" rx="1" transform="rotate(135 53.9578 26.3789)" fill="#333333"/>
<rect x="38.4014" y="10.8223" width="6" height="9" rx="1" transform="rotate(135 38.4014 10.8223)" fill="#333333"/>
<rect x="26.2391" y="10.1152" width="22.8" height="3.8" rx="0.9" transform="rotate(135 26.2391 10.1152)" fill="#D9D9D9" stroke="#767676" stroke-width="0.2"/>
<rect x="33.3102" y="17.1855" width="22.8" height="7.8" rx="0.9" transform="rotate(135 33.3102 17.1855)" fill="#D9D9D9" stroke="black" stroke-width="0.2"/>
<rect x="43.9168" y="34.8633" width="13.8" height="1.8" rx="0.4" transform="rotate(135 43.9168 34.8633)" fill="#D9D9D9" stroke="black" stroke-width="0.2"/>
<rect x="43.2097" y="39.8145" width="5.8" height="1.8" rx="0.4" transform="rotate(135 43.2097 39.8145)" fill="#D9D9D9" stroke="black" stroke-width="0.2"/>
</svg>
