<svg width="39" height="41" viewBox="0 0 39 41" fill="none" xmlns="http://www.w3.org/2000/svg">
<rect x="31.7518" y="40.75" width="24.5" height="40.5" rx="0.25" transform="rotate(180 31.7518 40.75)" fill="#94E499" stroke="black" stroke-width="0.5"/>
<rect x="6.00183" y="14" width="6" height="9" rx="1" transform="rotate(180 6.00183 14)" fill="#333333"/>
<rect x="6.00183" y="37" width="6" height="9" rx="1" transform="rotate(180 6.00183 37)" fill="#333333"/>
<rect x="39.0018" y="37" width="6" height="9" rx="1" transform="rotate(180 39.0018 37)" fill="#333333"/>
<rect x="39.0018" y="15" width="6" height="9" rx="1" transform="rotate(180 39.0018 15)" fill="#333333"/>
<rect x="30.9018" y="5.9" width="22.8" height="3.8" rx="0.9" transform="rotate(180 30.9018 5.9)" fill="#D9D9D9" stroke="#767676" stroke-width="0.2"/>
<rect x="30.9018" y="15.9" width="22.8" height="7.8" rx="0.9" transform="rotate(180 30.9018 15.9)" fill="#D9D9D9" stroke="black" stroke-width="0.2"/>
<rect x="25.9018" y="35.9" width="13.8" height="1.8" rx="0.4" transform="rotate(180 25.9018 35.9)" fill="#D9D9D9" stroke="black" stroke-width="0.2"/>
<rect x="21.9018" y="38.9" width="5.8" height="1.8" rx="0.4" transform="rotate(180 21.9018 38.9)" fill="#D9D9D9" stroke="black" stroke-width="0.2"/>
</svg>
