<svg width="57" height="57" viewBox="0 0 57 57" fill="none" xmlns="http://www.w3.org/2000/svg">
<rect x="22.8433" y="51.4843" width="24.5" height="40.5" rx="0.25" transform="rotate(-135 22.8433 51.4843)" fill="#94E499" stroke="black" stroke-width="0.5"/>
<rect x="23.5503" y="14.3613" width="6" height="9" rx="1" transform="rotate(-135 23.5503 14.3613)" fill="#333333"/>
<rect x="7.28687" y="30.625" width="6" height="9" rx="1" transform="rotate(-135 7.28687 30.625)" fill="#333333"/>
<rect x="30.6213" y="53.959" width="6" height="9" rx="1" transform="rotate(-135 30.6213 53.959)" fill="#333333"/>
<rect x="46.1777" y="38.4023" width="6" height="9" rx="1" transform="rotate(-135 46.1777 38.4023)" fill="#333333"/>
<rect x="46.8849" y="26.2394" width="22.8" height="3.8" rx="0.9" transform="rotate(-135 46.8849 26.2394)" fill="#D9D9D9" stroke="#767676" stroke-width="0.2"/>
<rect x="39.8138" y="33.3117" width="22.8" height="7.8" rx="0.9" transform="rotate(-135 39.8138 33.3117)" fill="#D9D9D9" stroke="black" stroke-width="0.2"/>
<rect x="22.1361" y="43.9172" width="13.8" height="1.8" rx="0.4" transform="rotate(-135 22.1361 43.9172)" fill="#D9D9D9" stroke="black" stroke-width="0.2"/>
<rect x="17.1864" y="43.2101" width="5.8" height="1.8" rx="0.4" transform="rotate(-135 17.1864 43.2101)" fill="#D9D9D9" stroke="black" stroke-width="0.2"/>
</svg>
