<svg width="41" height="39" viewBox="0 0 41 39" fill="none" xmlns="http://www.w3.org/2000/svg">
<rect x="0.248047" y="31.752" width="24.5" height="40.5" rx="0.25" transform="rotate(-90 0.248047 31.752)" fill="#94E499" stroke="black" stroke-width="0.5"/>
<rect x="26.998" y="6.00195" width="6" height="9" rx="1" transform="rotate(-90 26.998 6.00195)" fill="#333333"/>
<rect x="3.99805" y="6.00195" width="6" height="9" rx="1" transform="rotate(-90 3.99805 6.00195)" fill="#333333"/>
<rect x="3.99805" y="39.002" width="6" height="9" rx="1" transform="rotate(-90 3.99805 39.002)" fill="#333333"/>
<rect x="25.998" y="39.002" width="6" height="9" rx="1" transform="rotate(-90 25.998 39.002)" fill="#333333"/>
<rect x="35.098" y="30.902" width="22.8" height="3.8" rx="0.9" transform="rotate(-90 35.098 30.902)" fill="#D9D9D9" stroke="#767676" stroke-width="0.2"/>
<rect x="25.098" y="30.902" width="22.8" height="7.8" rx="0.9" transform="rotate(-90 25.098 30.902)" fill="#D9D9D9" stroke="black" stroke-width="0.2"/>
<rect x="5.09805" y="25.902" width="13.8" height="1.8" rx="0.4" transform="rotate(-90 5.09805 25.902)" fill="#D9D9D9" stroke="black" stroke-width="0.2"/>
<rect x="2.09805" y="21.902" width="5.8" height="1.8" rx="0.4" transform="rotate(-90 2.09805 21.902)" fill="#D9D9D9" stroke="black" stroke-width="0.2"/>
</svg>
