<svg width="57" height="57" viewBox="0 0 57 57" fill="none" xmlns="http://www.w3.org/2000/svg">
<rect x="5.51701" y="22.8457" width="24.5" height="40.5" rx="0.25" transform="rotate(-45 5.51701 22.8457)" fill="#94E499" stroke="black" stroke-width="0.5"/>
<rect x="42.6401" y="23.5527" width="6" height="9" rx="1" transform="rotate(-45 42.6401 23.5527)" fill="#333333"/>
<rect x="26.3767" y="7.28906" width="6" height="9" rx="1" transform="rotate(-45 26.3767 7.28906)" fill="#333333"/>
<rect x="3.04211" y="30.623" width="6" height="9" rx="1" transform="rotate(-45 3.04211 30.623)" fill="#333333"/>
<rect x="18.5985" y="46.1797" width="6" height="9" rx="1" transform="rotate(-45 18.5985 46.1797)" fill="#333333"/>
<rect x="30.7608" y="46.8867" width="22.8" height="3.8" rx="0.9" transform="rotate(-45 30.7608 46.8867)" fill="#D9D9D9" stroke="#767676" stroke-width="0.2"/>
<rect x="23.6896" y="39.8164" width="22.8" height="7.8" rx="0.9" transform="rotate(-45 23.6896 39.8164)" fill="#D9D9D9" stroke="black" stroke-width="0.2"/>
<rect x="13.0831" y="22.1387" width="13.8" height="1.8" rx="0.4" transform="rotate(-45 13.0831 22.1387)" fill="#D9D9D9" stroke="black" stroke-width="0.2"/>
<rect x="13.7902" y="17.1875" width="5.8" height="1.8" rx="0.4" transform="rotate(-45 13.7902 17.1875)" fill="#D9D9D9" stroke="black" stroke-width="0.2"/>
</svg>
