<svg width="57" height="57" viewBox="0 0 57 57" fill="none" xmlns="http://www.w3.org/2000/svg">
<rect x="34.1587" y="5.51762" width="24.5" height="40.5" rx="0.25" transform="rotate(45 34.1587 5.51762)" fill="#94E499" stroke="black" stroke-width="0.5"/>
<rect x="33.4517" y="42.6406" width="6" height="9" rx="1" transform="rotate(45 33.4517 42.6406)" fill="#333333"/>
<rect x="49.7151" y="26.377" width="6" height="9" rx="1" transform="rotate(45 49.7151 26.377)" fill="#333333"/>
<rect x="26.3806" y="3.04297" width="6" height="9" rx="1" transform="rotate(45 26.3806 3.04297)" fill="#333333"/>
<rect x="10.8242" y="18.5996" width="6" height="9" rx="1" transform="rotate(45 10.8242 18.5996)" fill="#333333"/>
<rect x="10.1171" y="30.7625" width="22.8" height="3.8" rx="0.9" transform="rotate(45 10.1171 30.7625)" fill="#D9D9D9" stroke="#767676" stroke-width="0.2"/>
<rect x="17.1881" y="23.6902" width="22.8" height="7.8" rx="0.9" transform="rotate(45 17.1881 23.6902)" fill="#D9D9D9" stroke="black" stroke-width="0.2"/>
<rect x="34.8658" y="13.0848" width="13.8" height="1.8" rx="0.4" transform="rotate(45 34.8658 13.0848)" fill="#D9D9D9" stroke="black" stroke-width="0.2"/>
<rect x="39.8156" y="13.7918" width="5.8" height="1.8" rx="0.4" transform="rotate(45 39.8156 13.7918)" fill="#D9D9D9" stroke="black" stroke-width="0.2"/>
</svg>
