<svg width="41" height="39" viewBox="0 0 41 39" fill="none" xmlns="http://www.w3.org/2000/svg">
<rect x="40.75" y="7.24805" width="24.5" height="40.5" rx="0.25" transform="rotate(90 40.75 7.24805)" fill="#94E499" stroke="black" stroke-width="0.5"/>
<rect x="14" y="32.998" width="6" height="9" rx="1" transform="rotate(90 14 32.998)" fill="#333333"/>
<rect x="37" y="32.998" width="6" height="9" rx="1" transform="rotate(90 37 32.998)" fill="#333333"/>
<rect x="37" y="-0.00195312" width="6" height="9" rx="1" transform="rotate(90 37 -0.00195312)" fill="#333333"/>
<rect x="15" y="-0.00195312" width="6" height="9" rx="1" transform="rotate(90 15 -0.00195312)" fill="#333333"/>
<rect x="5.9" y="8.09805" width="22.8" height="3.8" rx="0.9" transform="rotate(90 5.9 8.09805)" fill="#D9D9D9" stroke="#767676" stroke-width="0.2"/>
<rect x="15.9" y="8.09805" width="22.8" height="7.8" rx="0.9" transform="rotate(90 15.9 8.09805)" fill="#D9D9D9" stroke="black" stroke-width="0.2"/>
<rect x="35.9" y="13.098" width="13.8" height="1.8" rx="0.4" transform="rotate(90 35.9 13.098)" fill="#D9D9D9" stroke="black" stroke-width="0.2"/>
<rect x="38.9" y="17.098" width="5.8" height="1.8" rx="0.4" transform="rotate(90 38.9 17.098)" fill="#D9D9D9" stroke="black" stroke-width="0.2"/>
</svg>
